# xmcd CD database file
#
# Track frame offsets:
#	182
#	13460
#	28512
#	45760
#	63005
#	76047
#	88305
#	107295
#	122252
#	148977
#	172827
#	185770
#	200107
#	220310
#	237345
#	260862
#	274222
#
# Disc length: 3819 seconds
#
# Revision: 0
# Processed by: cddbd v1.5.1PL0 Copyright (c) Steve Scherf et al.
# Submitted via: CDex 1.50beta8
#
DISCID=ef0ee911
DTITLE=Firehouse Five Plus Two - Wane Jazz
DYEAR=1900
DGENRE=Jazz
TTITLE0=Firehouse stomp
TTITLE1=Sheik of araby
TTITLE2=When my dreamboat comes home
TTITLE3=Girl of my dreams
TTITLE4=Show me the way to the fire
TTITLE5=Petite fleu
TTITLE6=Hello Dolly
TTITLE7=Swanee river
TTITLE8=Basin street blues
TTITLE9=Baby won't you please come home
TTITLE10=Frankie and Johnny
TTITLE11=What is this thing called love ?
TTITLE12=Red sails in the sunset
TTITLE13=Lady of spain
TTITLE14=Original Dixieland one-step
TTITLE15=The world is waiting for the sunrise
TTITLE16=Runnin' wild
EXTD=
EXTT0=
EXTT1=
EXTT2=
EXTT3=
EXTT4=
EXTT5=
EXTT6=
EXTT7=
EXTT8=
EXTT9=
EXTT10=
EXTT11=
EXTT12=
EXTT13=
EXTT14=
EXTT15=
EXTT16=
PLAYORDER=
